<svg xmlns="http://www.w3.org/2000/svg" viewBox="5294 5044.07177734375 452.68994140625 254.54638671875" width="452.68994140625" height="254.54638671875" data-guides="{&quot;vertical&quot;:[],&quot;horizontal&quot;:[]}">
  <path fill="rgb(0, 0, 0)" stroke="none" fill-opacity="1" stroke-width="1" stroke-opacity="1" alignment-baseline="baseline" baseline-shift="baseline" font-size-adjust="none" id="tSvg35c9ee76d5" title="Path 1" d="M 5320.634 5218.867 C 5314.184 5218.971 5308.689 5221.618 5304.674 5227.429C 5304.603 5227.429 5304.532 5227.429 5304.461 5227.429C 5304.461 5218.231666666667 5304.461 5209.034333333333 5304.461 5199.837C 5301.359333333334 5199.837 5298.257666666666 5199.837 5295.156 5199.837C 5295.156 5225.138 5295.156 5250.439 5295.156 5275.74C 5298.080666666667 5275.74 5301.0053333333335 5275.74 5303.93 5275.74C 5303.93 5273.4490000000005 5303.93 5271.158 5303.93 5268.867C 5304 5268.867 5304.07 5268.867 5304.14 5268.867C 5306.043 5271.932 5309.954 5277.323 5319.363 5277.323C 5338.178 5277.323 5343.677 5259.67 5343.677 5246.46C 5343.677 5230.919 5335.326 5218.867 5320.634 5218.867ZM 5319.153 5269.292 C 5313.234 5269.292 5304.035 5265.378 5304.035 5250.684C 5304.035 5241.699 5305.513 5227.216 5318.939 5227.216C 5333.314 5227.216 5334.057 5240.857 5334.057 5247.937C 5334.058 5260.09 5329.299 5269.292 5319.153 5269.292Z"/>
  <path fill="rgb(0, 0, 0)" stroke="none" fill-opacity="1" stroke-width="1" stroke-opacity="1" alignment-baseline="baseline" baseline-shift="baseline" font-size-adjust="none" id="tSvg40ea61bd73" title="Path 2" d="M 5392.409 5266.117 C 5392.409 5255.511333333334 5392.409 5244.905666666667 5392.409 5234.3C 5392.409 5220.139 5376.341 5218.866 5371.903 5218.866C 5358.266 5218.866 5349.493 5224.046 5349.07 5237.261C 5351.924333333333 5237.261 5354.778666666667 5237.261 5357.633 5237.261C 5358.266 5233.03 5359.747 5226.5869999999995 5370.319 5226.5869999999995C 5379.092 5226.5869999999995 5383.32 5229.751 5383.32 5235.568C 5383.32 5241.065 5380.678 5241.914 5378.457 5242.128C 5373.347 5242.76 5368.237 5243.392 5363.127 5244.024C 5347.694 5245.924 5346.321 5256.71 5346.321 5261.363C 5346.321 5270.873 5353.509 5277.321 5363.655 5277.321C 5374.438 5277.321 5380.041 5272.248 5383.634 5268.339C 5383.951 5272.566 5385.219 5276.792 5393.466 5276.792C 5395.579 5276.792 5396.953 5276.16 5398.541 5275.738C 5398.541 5273.482666666667 5398.541 5271.227333333333 5398.541 5268.972C 5397.4800000000005 5269.187 5396.319 5269.392 5395.474 5269.392C 5393.574 5269.392 5392.409 5268.446 5392.409 5266.117ZM 5383.105 5256.604 C 5383.105 5264.004 5374.649 5269.604 5365.981 5269.604C 5359.003 5269.604 5355.936 5266.011 5355.936 5259.987C 5355.936 5253.009 5363.231 5251.636 5367.777 5250.998C 5379.3 5249.519 5381.623 5248.676 5383.102 5247.511C 5383.102 5250.542333333333 5383.102 5253.573666666666 5383.102 5256.605C 5383.103 5256.605 5383.104 5256.605 5383.105 5256.604Z"/>
  <path fill="rgb(0, 0, 0)" stroke="none" fill-opacity="1" stroke-width="1" stroke-opacity="1" alignment-baseline="baseline" baseline-shift="baseline" font-size-adjust="none" id="tSvgfd644225b0" title="Path 3" d="M 5428.562 5218.867 C 5419.048 5218.867 5413.867 5225.315 5411.861 5228.271C 5411.79 5228.271 5411.719 5228.271 5411.648 5228.271C 5411.648 5225.664666666667 5411.648 5223.058333333333 5411.648 5220.452C 5408.723666666667 5220.452 5405.799333333333 5220.452 5402.875 5220.452C 5402.875 5238.880666666667 5402.875 5257.309333333334 5402.875 5275.738C 5405.975333333334 5275.738 5409.075666666667 5275.738 5412.176 5275.738C 5412.176 5265.695333333333 5412.176 5255.652666666667 5412.176 5245.61C 5412.176 5230.598 5421.4800000000005 5227.219 5426.766 5227.219C 5435.857 5227.219 5438.606 5232.082 5438.606 5241.699C 5438.606 5253.045 5438.606 5264.391 5438.606 5275.737C 5441.7063333333335 5275.737 5444.806666666666 5275.737 5447.907 5275.737C 5447.907 5263.192666666667 5447.907 5250.6483333333335 5447.907 5238.104C 5447.907 5222.356 5437.124 5218.867 5428.562 5218.867Z"/>
  <path fill="rgb(0, 0, 0)" stroke="none" fill-opacity="1" stroke-width="1" stroke-opacity="1" alignment-baseline="baseline" baseline-shift="baseline" font-size-adjust="none" id="tSvg175c6069d97" title="Path 4" d="M 5492.94 5228.271 C 5492.87 5228.271 5492.8 5228.271 5492.73 5228.271C 5490.511 5225.108 5486.28 5218.867 5476.239 5218.867C 5461.547 5218.867 5453.196 5230.92 5453.196 5246.459C 5453.196 5259.668 5458.692 5277.321 5477.508 5277.321C 5482.9039999999995 5277.321 5489.245 5275.633 5493.258 5268.124C 5493.33 5268.124 5493.402 5268.124 5493.474 5268.124C 5493.474 5270.662 5493.474 5273.2 5493.474 5275.738C 5496.397 5275.738 5499.32 5275.738 5502.243 5275.738C 5502.243 5250.437333333333 5502.243 5225.136666666666 5502.243 5199.836C 5499.143333333333 5199.836 5496.0436666666665 5199.836 5492.944 5199.836C 5492.944 5209.314666666667 5492.944 5218.793333333333 5492.944 5228.272C 5492.942666666667 5228.272 5492.941333333333 5228.272 5492.94 5228.271ZM 5477.717 5269.292 C 5467.567 5269.292 5462.812 5260.091 5462.812 5247.937C 5462.812 5240.857 5463.552 5227.216 5477.929 5227.216C 5491.353 5227.216 5492.83 5241.698 5492.83 5250.684C 5492.833 5265.377 5483.637 5269.292 5477.717 5269.292Z"/>
  <path fill="rgb(0, 0, 0)" stroke="none" fill-opacity="1" stroke-width="1" stroke-opacity="1" alignment-baseline="baseline" baseline-shift="baseline" font-size-adjust="none" id="tSvg54bdd1214f" title="Path 5" d="M 5535.539 5227.219 C 5543.363 5227.219 5547.487 5231.657 5548.645 5239.056C 5551.641 5239.056 5554.637 5239.056 5557.633 5239.056C 5556.891 5229.439 5551.392 5218.862 5536.911 5218.862C 5518.626 5218.862 5510.38 5232.503 5510.38 5249.625C 5510.38 5265.588 5519.576 5277.3189999999995 5535.113 5277.3189999999995C 5551.291 5277.3189999999995 5556.68 5264.951 5557.633 5256.178C 5554.637 5256.178 5551.641 5256.178 5548.645 5256.178C 5547.06 5264.633 5541.669 5269.287 5535.433 5269.287C 5522.643 5269.287 5520.317 5257.5509999999995 5520.317 5248.036C 5520.317 5238.209 5524.018 5227.219 5535.539 5227.219Z"/>
  <path fill="rgb(0, 0, 0)" stroke="none" fill-opacity="1" stroke-width="1" stroke-opacity="1" alignment-baseline="baseline" baseline-shift="baseline" font-size-adjust="none" id="tSvga39f688a6c" title="Path 6" d="M 5604.674 5266.117 C 5604.674 5255.511333333334 5604.674 5244.905666666667 5604.674 5234.3C 5604.674 5220.139 5588.609 5218.866 5584.167 5218.866C 5570.53 5218.866 5561.758 5224.046 5561.333 5237.261C 5564.187333333333 5237.261 5567.041666666667 5237.261 5569.896 5237.261C 5570.53 5233.03 5572.012 5226.5869999999995 5582.584 5226.5869999999995C 5591.356 5226.5869999999995 5595.586 5229.751 5595.586 5235.568C 5595.586 5241.065 5592.94 5241.914 5590.723 5242.128C 5585.613333333334 5242.76 5580.5036666666665 5243.392 5575.394 5244.024C 5559.96 5245.924 5558.5869999999995 5256.71 5558.5869999999995 5261.363C 5558.5869999999995 5270.873 5565.7699999999995 5277.321 5575.923 5277.321C 5586.7029999999995 5277.321 5592.308 5272.248 5595.902 5268.339C 5596.217 5272.566 5597.483 5276.792 5605.734 5276.792C 5607.843 5276.792 5609.221 5276.16 5610.807 5275.738C 5610.807 5273.482666666667 5610.807 5271.227333333333 5610.807 5268.972C 5609.748 5269.187 5608.5869999999995 5269.392 5607.744 5269.392C 5605.839 5269.392 5604.674 5268.446 5604.674 5266.117ZM 5595.371 5256.604 C 5595.371 5264.004 5586.913 5269.604 5578.25 5269.604C 5571.265 5269.604 5568.204 5266.011 5568.204 5259.987C 5568.204 5253.009 5575.496 5251.636 5580.043 5250.998C 5591.566 5249.519 5593.891 5248.676 5595.371 5247.511C 5595.371 5250.542 5595.371 5253.573 5595.371 5256.604Z"/>
  <path fill="rgb(0, 0, 0)" stroke="none" fill-opacity="1" stroke-width="1" stroke-opacity="1" alignment-baseline="baseline" baseline-shift="baseline" font-size-adjust="none" id="tSvg5c7dd3ec53" title="Path 7" d="M 5672.433 5218.867 C 5663.87 5218.867 5660.167 5222.6720000000005 5655.524 5227.854C 5653.934 5224.893 5650.765 5218.867 5640.829 5218.867C 5630.893 5218.867 5626.135 5225.315 5624.127 5228.271C 5624.055666666667 5228.271 5623.984333333334 5228.271 5623.9130000000005 5228.271C 5623.9130000000005 5225.664666666667 5623.9130000000005 5223.058333333333 5623.9130000000005 5220.452C 5620.99 5220.452 5618.067 5220.452 5615.144 5220.452C 5615.144 5238.880666666667 5615.144 5257.309333333334 5615.144 5275.738C 5618.244 5275.738 5621.344 5275.738 5624.444 5275.738C 5624.444 5265.695333333333 5624.444 5255.652666666667 5624.444 5245.61C 5624.444 5230.598 5633.744 5227.219 5639.029 5227.219C 5645.897 5227.219 5647.697 5232.82 5647.697 5237.471C 5647.697 5250.227666666667 5647.697 5262.984333333334 5647.697 5275.741C 5650.798666666667 5275.741 5653.900333333333 5275.741 5657.002 5275.741C 5657.002 5264.500333333333 5657.002 5253.259666666667 5657.002 5242.019C 5657.002 5234.615 5662.183 5227.219 5670.004 5227.219C 5677.929 5227.219 5680.256 5232.398 5680.256 5240.009C 5680.256 5251.919333333333 5680.256 5263.8296666666665 5680.256 5275.74C 5683.356 5275.74 5686.456 5275.74 5689.5560000000005 5275.74C 5689.5560000000005 5262.983333333334 5689.5560000000005 5250.2266666666665 5689.5560000000005 5237.47C 5689.557 5221.93 5678.354 5218.867 5672.433 5218.867Z"/>
  <path fill="rgb(0, 0, 0)" stroke="none" fill-opacity="1" stroke-width="1" stroke-opacity="1" alignment-baseline="baseline" baseline-shift="baseline" font-size-adjust="none" id="tSvgd891f440ec" title="Path 8" d="M 5722.642 5218.867 C 5712.605 5218.867 5708.38 5225.108 5706.154 5228.271C 5706.082666666667 5228.271 5706.011333333333 5228.271 5705.94 5228.271C 5705.94 5225.664666666667 5705.94 5223.058333333333 5705.94 5220.452C 5703.015666666666 5220.452 5700.091333333334 5220.452 5697.167 5220.452C 5697.167 5246.174 5697.167 5271.896 5697.167 5297.618C 5700.268666666667 5297.618 5703.370333333333 5297.618 5706.472 5297.618C 5706.472 5288.386666666666 5706.472 5279.155333333333 5706.472 5269.924C 5706.542666666666 5269.924 5706.613333333334 5269.924 5706.684 5269.924C 5709.119 5273.834 5713.979 5277.321 5721.376 5277.321C 5740.197 5277.321 5745.69 5259.668 5745.69 5246.459C 5745.691 5230.919 5737.338 5218.867 5722.642 5218.867ZM 5721.17 5269.292 C 5715.248 5269.292 5706.049 5265.378 5706.049 5250.684C 5706.049 5241.699 5707.531 5227.216 5720.953 5227.216C 5735.333 5227.216 5736.074 5240.857 5736.074 5247.937C 5736.072 5260.09 5731.312 5269.292 5721.17 5269.292Z"/>
  <path fill="rgb(0, 0, 0)" stroke="none" fill-opacity="1" stroke-width="1" stroke-opacity="1" alignment-baseline="baseline" baseline-shift="baseline" font-size-adjust="none" id="tSvg13933ae9ce" title="Path 9" d="M 5295 5197.739 C 5355.467333333333 5197.739 5415.934666666667 5197.739 5476.402 5197.739C 5499.923 5146.850666666666 5523.444 5095.962333333333 5546.965 5045.074C 5486.497 5045.074 5426.029 5045.074 5365.561 5045.074C 5342.040666666667 5095.962333333333 5318.520333333333 5146.850666666666 5295 5197.739Z"/>
  <path fill="rgb(0, 0, 0)" stroke="none" fill-opacity="1" stroke-width="1" stroke-opacity="1" alignment-baseline="baseline" baseline-shift="baseline" font-size-adjust="none" id="tSvga4e0e0ca02" title="Path 10" d="M 5596.692 5082.215 C 5584.102 5082.423 5573.377 5087.583 5565.537 5098.927C 5565.398 5098.927 5565.259 5098.927 5565.12 5098.927C 5565.12 5080.975333333334 5565.12 5063.023666666667 5565.12 5045.072C 5559.067666666667 5045.072 5553.015333333334 5045.072 5546.963 5045.072C 5546.963 5094.4546666666665 5546.963 5143.837333333333 5546.963 5193.22C 5552.673333333333 5193.22 5558.383666666667 5193.22 5564.094 5193.22C 5564.094 5188.749333333333 5564.094 5184.278666666667 5564.094 5179.808C 5564.230666666666 5179.808 5564.367333333334 5179.808 5564.504 5179.808C 5568.218 5185.79 5575.853 5196.311 5594.213 5196.311C 5630.942 5196.311 5641.67 5161.858 5641.67 5136.07C 5641.668 5105.742 5625.372 5082.215 5596.692 5082.215ZM 5593.8 5180.635 C 5582.251 5180.635 5564.299 5172.996 5564.299 5144.322C 5564.299 5126.783 5567.182 5098.517 5593.389 5098.517C 5621.449 5098.517 5622.893 5125.136 5622.893 5138.959C 5622.893 5162.677 5613.608 5180.635 5593.8 5180.635Z"/>
  <path fill="rgb(0, 0, 0)" stroke="none" fill-opacity="1" stroke-width="1" stroke-opacity="1" alignment-baseline="baseline" baseline-shift="baseline" font-size-adjust="none" id="tSvg1785bf62071" title="Path 11" d="M 5702.408 5098.517 C 5717.676 5098.517 5725.732 5107.181 5727.997 5121.623C 5733.841666666667 5121.623 5739.686333333333 5121.623 5745.531 5121.623C 5744.088 5102.852 5733.36 5082.213 5705.091 5082.213C 5669.399 5082.213 5653.311 5108.832 5653.311 5142.253C 5653.311 5173.413 5671.26 5196.311 5701.587 5196.311C 5733.154 5196.311 5743.682 5172.173 5745.531 5155.049C 5739.686333333333 5155.049 5733.841666666667 5155.049 5727.997 5155.049C 5724.899 5171.552 5714.382 5180.635 5702.212 5180.635C 5677.248 5180.635 5672.704 5157.73 5672.704 5139.162C 5672.706 5119.97 5679.928 5098.517 5702.408 5098.517Z"/>
  <defs/>
</svg>